{
  "accessors": [
    {
      "bufferView": 2,
      "componentType": 5126,
      "count": 6930,
      "max": [
        5.9884490966796875,
        13.580490112304688,
        4.351835250854492
      ],
      "min": [
        -7.7807111740112305,
        -6.64923095703125,
        -10.375280380249023
      ],
      "type": "VEC3"
    },
    {
      "bufferView": 2,
      "byteOffset": 83160,
      "componentType": 5126,
      "count": 6930,
      "max": [
        0.9999121427536011,
        0.9999293684959412,
        0.9999921321868896
      ],
      "min": [
        -0.999923050403595,
        -0.9999133944511414,
        -0.9998134970664978
      ],
      "type": "VEC3"
    },
    {
      "bufferView": 1,
      "componentType": 5126,
      "count": 6930,
      "max": [
        0.9978991150856018,
        1.0
      ],
      "min": [
        0.0,
        0.0
      ],
      "type": "VEC2"
    },
    {
      "bufferView": 1,
      "byteOffset": 55440,
      "componentType": 5126,
      "count": 6930,
      "max": [
        0.9978991150856018,
        1.0
      ],
      "min": [
        0.0,
        0.0
      ],
      "type": "VEC2"
    },
    {
      "bufferView": 0,
      "componentType": 5125,
      "count": 33288,
      "type": "SCALAR"
    },
    {
      "bufferView": 2,
      "byteOffset": 166320,
      "componentType": 5126,
      "count": 13831,
      "max": [
        6.04663610458374,
        4.344882011413574,
        4.461212158203125
      ],
      "min": [
        -5.805542469024658,
        -6.188156604766846,
        -6.771700859069824
      ],
      "type": "VEC3"
    },
    {
      "bufferView": 2,
      "byteOffset": 332292,
      "componentType": 5126,
      "count": 13831,
      "max": [
        0.9991042017936707,
        0.998188853263855,
        0.999703049659729
      ],
      "min": [
        -0.9991644620895386,
        -0.9990283846855164,
        -0.9997169375419617
      ],
      "type": "VEC3"
    },
    {
      "bufferView": 1,
      "byteOffset": 110880,
      "componentType": 5126,
      "count": 13831,
      "max": [
        0.9995344877243042,
        0.9962548017501831
      ],
      "min": [
        0.0,
        0.0
      ],
      "type": "VEC2"
    },
    {
      "bufferView": 0,
      "byteOffset": 133152,
      "componentType": 5125,
      "count": 19377,
      "type": "SCALAR"
    },
    {
      "bufferView": 2,
      "byteOffset": 498264,
      "componentType": 5126,
      "count": 15197,
      "max": [
        6.029993534088135,
        5.195387840270996,
        4.548400402069092
      ],
      "min": [
        -5.8699727058410645,
        -6.043675899505615,
        -6.085770130157471
      ],
      "type": "VEC3"
    },
    {
      "bufferView": 2,
      "byteOffset": 680628,
      "componentType": 5126,
      "count": 15197,
      "max": [
        0.9998788237571716,
        0.9998844861984253,
        0.9993149042129517
      ],
      "min": [
        -0.9998824000358582,
        -0.9999497532844543,
        -0.9996387958526611
      ],
      "type": "VEC3"
    },
    {
      "bufferView": 1,
      "byteOffset": 221528,
      "componentType": 5126,
      "count": 15197,
      "max": [
        1.0,
        0.989192008972168
      ],
      "min": [
        0.0,
        0.0
      ],
      "type": "VEC2"
    },
    {
      "bufferView": 0,
      "byteOffset": 210660,
      "componentType": 5125,
      "count": 21249,
      "type": "SCALAR"
    }
  ],
  "asset": {
    "extras": {
      "author": "Animation_loop (https://sketchfab.com/SahuAvdhesh)",
      "license": "CC-BY-4.0 (http://creativecommons.org/licenses/by/4.0/)",
      "source": "https://sketchfab.com/3d-models/human-heart-3d-model-d04d3dc85f584876ac753b68342124d1",
      "title": "Human Heart 3D model"
    },
    "generator": "Sketchfab-16.32.0",
    "version": "2.0"
  },
  "bufferViews": [
    {
      "buffer": 0,
      "byteLength": 295656,
      "name": "floatBufferViews",
      "target": 34963
    },
    {
      "buffer": 0,
      "byteLength": 343104,
      "byteOffset": 295656,
      "byteStride": 8,
      "name": "floatBufferViews",
      "target": 34962
    },
    {
      "buffer": 0,
      "byteLength": 862992,
      "byteOffset": 638760,
      "byteStride": 12,
      "name": "floatBufferViews",
      "target": 34962
    }
  ],
  "buffers": [
    {
      "byteLength": 1501752,
      "uri": "scene.bin"
    }
  ],
  "images": [
    {
      "uri": "textures/heart_baseColor.png"
    }
  ],
  "materials": [
    {
      "doubleSided": true,
      "name": "heart",
      "pbrMetallicRoughness": {
        "baseColorTexture": {
          "index": 0
        },
        "metallicFactor": 0.0,
        "roughnessFactor": 0.6
      }
    },
    {
      "doubleSided": true,
      "name": "red1",
      "pbrMetallicRoughness": {
        "baseColorFactor": [
          0.4,
          0.0,
          0.0,
          1.0
        ],
        "metallicFactor": 0.0,
        "roughnessFactor": 0.6
      }
    },
    {
      "doubleSided": true,
      "name": "blue",
      "pbrMetallicRoughness": {
        "baseColorFactor": [
          0.0,
          0.0,
          0.8,
          1.0
        ],
        "metallicFactor": 0.0,
        "roughnessFactor": 0.6
      }
    }
  ],
  "meshes": [
    {
      "name": "aorta_heart_0",
      "primitives": [
        {
          "attributes": {
            "NORMAL": 1,
            "POSITION": 0,
            "TEXCOORD_0": 2,
            "TEXCOORD_1": 3
          },
          "indices": 4,
          "material": 0,
          "mode": 4
        }
      ]
    },
    {
      "name": "grtcard_red1_0",
      "primitives": [
        {
          "attributes": {
            "NORMAL": 6,
            "POSITION": 5,
            "TEXCOORD_0": 7
          },
          "indices": 8,
          "material": 1,
          "mode": 4
        }
      ]
    },
    {
      "name": "grtcard_blue_0",
      "primitives": [
        {
          "attributes": {
            "NORMAL": 10,
            "POSITION": 9,
            "TEXCOORD_0": 11
          },
          "indices": 12,
          "material": 2,
          "mode": 4
        }
      ]
    }
  ],
  "nodes": [
    {
      "children": [
        1
      ],
      "matrix": [
        1.0,
        0.0,
        0.0,
        0.0,
        0.0,
        2.220446049250313e-16,
        -1.0,
        0.0,
        0.0,
        1.0,
        2.220446049250313e-16,
        0.0,
        0.0,
        0.0,
        0.0,
        1.0
      ],
      "name": "Sketchfab_model"
    },
    {
      "children": [
        2
      ],
      "matrix": [
        1.0,
        0.0,
        0.0,
        0.0,
        0.0,
        0.0,
        1.0,
        0.0,
        0.0,
        -1.0,
        0.0,
        0.0,
        0.0,
        0.0,
        0.0,
        1.0
      ],
      "name": "3da97e14002a4f88b5af9a35cbd65b6e.fbx"
    },
    {
      "children": [
        3,
        5
      ],
      "name": "RootNode"
    },
    {
      "children": [
        4
      ],
      "name": "aorta"
    },
    {
      "mesh": 0,
      "name": "aorta_heart_0"
    },
    {
      "children": [
        6,
        7
      ],
      "name": "grtcard"
    },
    {
      "mesh": 1,
      "name": "grtcard_red1_0"
    },
    {
      "mesh": 2,
      "name": "grtcard_blue_0"
    }
  ],
  "samplers": [
    {
      "magFilter": 9729,
      "minFilter": 9987,
      "wrapS": 10497,
      "wrapT": 10497
    }
  ],
  "scene": 0,
  "scenes": [
    {
      "name": "Sketchfab_Scene",
      "nodes": [
        0
      ]
    }
  ],
  "textures": [
    {
      "sampler": 0,
      "source": 0
    }
  ]
}
