<svg width="411" height="142" viewBox="0 0 411 142" fill="none" xmlns="http://www.w3.org/2000/svg">
<g clip-path="url(#clip0_120_1124)">
<path d="M143.042 37.159C143.227 39.0151 143.202 40.8536 142.968 42.6745C142.731 44.4682 142.254 46.2202 141.539 47.9305C140.868 49.5529 140.05 51.0954 139.085 52.5581C138.117 53.9935 136.984 55.3098 135.685 56.507C135.362 56.8199 135.022 57.1071 134.666 57.3686C134.306 57.6029 133.916 57.813 133.495 57.999C133.362 58.0418 133.215 58.0862 133.055 58.1321C132.895 58.178 132.748 58.2223 132.615 58.2651C131.94 58.3973 131.261 58.254 130.578 57.835C129.923 57.4129 129.527 56.8507 129.392 56.1485C129.37 55.9577 129.364 55.7791 129.372 55.6124C129.408 55.4427 129.503 55.3077 129.657 55.2073C129.842 55.131 129.928 55.0384 129.915 54.9294C129.9 54.7931 129.872 54.6721 129.833 54.5662C129.469 53.5587 129.14 52.492 128.846 51.3662C128.657 50.6702 128.453 49.9757 128.236 49.2828C128.043 48.5595 127.877 47.8331 127.739 47.1035C127.345 45.1058 126.965 43.1064 126.599 41.1055C126.233 39.1046 125.866 37.1037 125.5 35.1028L125.248 32.8956C125.195 32.4324 125.215 32.0022 125.308 31.6052C125.401 31.2082 125.546 30.7913 125.745 30.3546C126.284 29.2717 126.97 28.3929 127.804 27.7181C128.666 27.0401 129.67 26.5253 130.816 26.1736C131.99 25.8188 133.115 25.7595 134.191 25.9955C135.264 26.2044 136.306 26.6238 137.316 27.2538C138.776 28.1915 139.944 29.3556 140.82 30.7462C141.693 32.1096 142.323 33.6387 142.71 35.3337C142.786 35.5182 142.835 35.7058 142.857 35.8966C142.876 36.0601 142.911 36.2493 142.963 36.4642L143.042 37.159ZM132.697 55.3573C132.903 55.2234 133.079 55.0791 133.227 54.9241C133.375 54.7692 133.525 54.628 133.676 54.5003C134.388 53.7289 135.011 52.8987 135.545 52.0097C136.105 51.1176 136.622 50.203 137.095 49.2657C137.751 48.0038 138.237 46.6925 138.551 45.3316C138.892 43.9677 139.123 42.6026 139.243 41.2363C139.36 39.8427 139.315 38.4815 139.108 37.1525C138.901 35.8235 138.451 34.5361 137.756 33.2903C137.51 32.8216 137.21 32.3727 136.858 31.9437C136.532 31.5115 136.159 31.1401 135.737 30.8294C134.884 30.1262 134.028 29.7683 133.171 29.7557C132.338 29.7127 131.572 29.8967 130.874 30.3076C130.172 30.6913 129.58 31.1868 129.098 31.7939C129.001 31.9154 128.932 32.0337 128.89 32.1489C128.848 32.2641 128.836 32.4035 128.854 32.567C128.886 32.8395 128.918 33.1256 128.952 33.4253C129.011 33.6947 129.071 33.9777 129.132 34.2743C129.485 35.6695 129.786 37.0982 130.035 38.5603C130.312 40.0194 130.587 41.4648 130.861 42.8965C130.993 43.5715 131.127 44.2602 131.263 44.9624C131.395 45.6375 131.515 46.3276 131.623 47.033C131.821 48.2803 131.989 49.517 132.129 50.7432C132.269 51.9694 132.412 53.2229 132.558 54.5036C132.571 54.6126 132.573 54.7504 132.564 54.917C132.58 55.0533 132.624 55.2 132.697 55.3573ZM155.04 45.7275C155.407 45.7961 155.748 45.8814 156.063 45.9835C156.402 46.0552 156.727 46.1148 157.036 46.1623C157.942 46.3626 158.825 46.6068 159.686 46.895C160.547 47.1832 161.386 47.5154 162.202 47.8916C162.781 48.1292 163.35 48.3955 163.908 48.6907C164.466 48.9859 165.009 49.269 165.537 49.54C165.746 49.6817 165.942 49.825 166.124 49.9699C166.303 50.0875 166.458 50.2354 166.589 50.4137C166.814 50.6917 166.958 50.9926 167.023 51.3165C167.112 51.61 167.078 51.9175 166.921 52.239C166.71 52.5668 166.459 52.7886 166.169 52.9046C165.879 53.0205 165.539 53.073 165.152 53.062C164.955 53.0293 164.743 52.9845 164.515 52.9276C164.315 52.8676 164.114 52.794 163.91 52.7068C163.173 52.294 162.439 51.9085 161.708 51.5503C160.974 51.1647 160.205 50.8384 159.402 50.5712C158.25 50.1506 157.065 49.8028 155.846 49.5277C154.625 49.2254 153.402 49.0337 152.178 48.9525C152.096 48.9618 152.001 48.9727 151.892 48.9851C151.807 48.9672 151.725 48.9765 151.647 49.0131C151.687 49.3674 151.731 49.7488 151.777 50.1576C151.821 50.5391 151.878 50.919 151.949 51.2974C152.069 51.8634 152.176 52.4446 152.272 53.041C152.368 53.6374 152.463 54.2337 152.559 54.8301C152.627 55.1812 152.617 55.4584 152.53 55.6616C152.467 55.8344 152.332 55.9877 152.127 56.1216C151.573 56.3504 151.088 56.2125 150.672 55.7079C150.356 55.3575 150.105 54.9721 149.919 54.5517C149.76 54.1281 149.627 53.6878 149.52 53.2308C149.22 52.2989 148.948 51.3638 148.703 50.4256C148.482 49.4571 148.249 48.5037 148.004 47.5655C147.719 46.5215 147.475 45.4727 147.272 44.4194C147.093 43.3356 146.929 42.2639 146.781 41.2043C146.552 39.6846 146.336 38.1496 146.131 36.5995C145.924 35.0222 145.745 33.4554 145.595 31.899C145.533 31.3541 145.498 30.806 145.49 30.2548C145.482 29.7036 145.475 29.1524 145.467 28.6012C145.451 28.2166 145.521 27.8635 145.677 27.542C145.834 27.2205 146.11 26.9819 146.507 26.8263C146.582 26.7625 146.646 26.7138 146.697 26.6803C146.776 26.6438 146.826 26.5967 146.847 26.5391C147.628 25.6493 148.487 24.9442 149.421 24.4235C150.379 23.8725 151.39 23.4121 152.452 23.0425C153.883 22.5204 155.312 22.4677 156.74 22.8845C158.192 23.2709 159.413 24.0563 160.404 25.2406C160.951 25.9235 161.367 26.6628 161.651 27.4585C161.959 28.2239 162.135 29.0456 162.18 29.9238C162.299 30.9593 162.277 31.9831 162.117 32.9951C161.953 33.98 161.706 34.9605 161.376 35.9367C160.775 37.6891 159.979 39.2981 158.987 40.7639C157.995 42.2297 156.884 43.6262 155.655 44.9534C155.559 45.0748 155.447 45.1842 155.32 45.2815C155.221 45.3757 155.127 45.5244 155.04 45.7275ZM150.87 44.3815C151.061 44.3597 151.194 44.3169 151.269 44.2531C151.369 44.1589 151.47 44.0783 151.573 44.0114C152.253 43.437 152.887 42.8263 153.476 42.1795C154.089 41.5023 154.645 40.8176 155.146 40.1256C155.743 39.3122 156.283 38.4777 156.765 37.6222C157.244 36.7394 157.65 35.8235 157.984 34.8745C158.32 33.9528 158.546 33.0299 158.661 32.1058C158.801 31.1513 158.747 30.1914 158.498 29.226C158.339 28.5541 157.987 27.8903 157.443 27.2347C156.926 26.576 156.167 26.2072 155.164 26.1284C154.803 26.1143 154.432 26.129 154.051 26.1725C153.694 26.1857 153.356 26.2518 153.038 26.3709C152.321 26.6183 151.638 26.9171 150.988 27.2674C150.334 27.5903 149.701 27.9663 149.087 28.3951C148.785 28.6504 148.651 28.9279 148.685 29.2277C148.799 29.7392 148.885 30.2538 148.944 30.7716C149 31.2621 149.056 31.7525 149.112 32.243C149.28 33.7145 149.46 35.1708 149.652 36.6119C149.871 38.0499 150.077 39.4894 150.269 40.9305C150.389 41.4965 150.497 42.0777 150.592 42.6741C150.685 43.2432 150.777 43.8124 150.87 44.3815ZM170.135 50.0091C170.07 49.4368 170.03 48.8479 170.016 48.2422C170.002 47.6365 169.988 47.0308 169.975 46.425C169.953 46.2343 169.893 46.0755 169.796 45.9486C169.726 45.8185 169.565 45.7403 169.314 45.7137C168.977 45.6693 168.682 45.496 168.426 45.1939C168.195 44.8614 168.07 44.4893 168.05 44.0774C168.058 43.6625 168.209 43.2865 168.501 42.9494C168.767 42.6155 169.071 42.3738 169.412 42.2244C169.651 42.1419 169.803 42.0142 169.866 41.8414C169.956 41.6655 170.004 41.4806 170.009 41.2867C169.995 40.681 169.982 40.0753 169.968 39.4696C169.981 38.8608 169.996 38.2656 170.012 37.6841C170.062 36.1877 170.14 34.6883 170.244 33.1857C170.349 31.6832 170.454 30.1806 170.558 28.6781C170.659 27.8661 170.732 27.0572 170.778 26.2514C170.848 25.4153 170.975 24.5866 171.157 23.7652C171.238 23.5076 171.305 23.2514 171.359 22.9969C171.44 22.7392 171.55 22.492 171.689 22.2554C172.086 21.3819 172.693 20.8986 173.511 20.8053C174.355 20.7089 175.07 21.0415 175.653 21.803C176 22.1775 176.268 22.5887 176.457 23.0363C176.643 23.4568 176.803 23.894 176.938 24.3479C177.316 25.4916 177.656 26.6536 177.956 27.8339C178.281 28.9839 178.607 30.1475 178.934 31.3247C179.214 32.5626 179.481 33.8157 179.736 35.084C180.015 36.3219 180.282 37.575 180.538 38.8433C180.58 38.9764 180.638 39.1216 180.711 39.2789C180.809 39.4058 180.944 39.5008 181.117 39.5639C181.897 40.1098 182.021 40.7167 181.49 41.3846C181.255 41.7427 181.2 42.1078 181.325 42.48C181.464 43.2095 181.602 43.939 181.74 44.6685C181.906 45.3949 182.058 46.1229 182.197 46.8524C182.329 47.5274 182.476 48.2145 182.639 48.9136C182.802 49.6128 182.991 50.3088 183.208 51.0018C183.416 51.6129 183.248 52.0738 182.704 52.3843C182.272 52.7097 181.782 52.6551 181.236 52.2206C181.023 52.0516 180.835 51.8523 180.671 51.6226C180.503 51.3656 180.35 51.1071 180.21 50.8471C179.883 50.1666 179.612 49.4798 179.395 48.7869C179.175 48.0667 178.954 47.3465 178.734 46.6263C178.59 46.0907 178.433 45.5566 178.262 45.024C178.115 44.4611 177.969 43.9118 177.825 43.3762C177.779 43.2158 177.724 43.0978 177.661 43.0223C177.597 42.9468 177.471 42.9335 177.283 42.9825C176.778 43.1506 176.261 43.3339 175.731 43.5323C175.199 43.7035 174.681 43.8867 174.179 44.082C173.889 44.198 173.761 44.4058 173.795 44.7056C173.828 45.7231 173.846 46.7286 173.849 47.722C173.852 48.7154 173.858 49.7361 173.867 50.784C173.868 51.0323 173.882 51.2791 173.91 51.5244C173.938 51.7696 173.966 52.0149 173.994 52.2601C173.954 53.1204 173.606 53.6984 172.95 53.9941C172.608 54.1435 172.266 54.1688 171.923 54.0698C171.611 53.995 171.319 53.849 171.045 53.6317C170.833 53.4628 170.688 53.286 170.612 53.1015C170.533 52.8897 170.479 52.6612 170.451 52.416C170.38 52.0376 170.323 51.6576 170.28 51.2762C170.233 50.8674 170.185 50.4451 170.135 50.0091ZM174.211 28.7582C174.076 29.0221 174.014 29.2085 174.026 29.3175C173.747 31.2264 173.593 33.135 173.562 35.0431C173.573 35.87 173.573 36.7119 173.56 37.5691C173.572 38.3959 173.583 39.2227 173.595 40.0495C173.595 40.2979 173.613 40.4477 173.646 40.4991C173.707 40.5474 173.872 40.5424 174.141 40.484C174.52 40.4133 174.896 40.3289 175.272 40.2308C175.647 40.1328 176.01 40.05 176.361 39.9823C176.77 39.9357 176.913 39.7399 176.791 39.395C176.647 38.8593 176.518 38.3357 176.405 37.8242C176.288 37.2854 176.159 36.7618 176.019 36.2534C175.896 35.6602 175.761 35.0821 175.614 34.5192C175.467 33.9563 175.345 33.3766 175.25 32.7803C175.117 32.1052 174.958 31.4333 174.771 30.7645C174.612 30.0926 174.425 29.4238 174.211 28.7582ZM195.09 34.6985C194.772 34.8176 194.468 34.9351 194.178 35.051C193.884 35.1397 193.594 35.2557 193.306 35.3989C192.723 35.6035 192.242 35.5065 191.865 35.1078C191.425 34.6336 191.335 34.0917 191.597 33.4822C191.684 33.279 191.804 33.1136 191.955 32.9859C192.103 32.831 192.266 32.6882 192.444 32.5574C192.701 32.3901 192.963 32.2636 193.229 32.178C193.495 32.0925 193.763 32.0205 194.032 31.9621C194.81 31.763 195.603 31.5759 196.411 31.4009C197.244 31.1955 198.055 31.0477 198.845 30.9576C199.472 30.886 200.086 30.8297 200.689 30.7886C201.316 30.717 201.937 30.7152 202.552 30.7831C202.8 30.7823 203.053 30.8225 203.311 30.9035C203.565 30.9572 203.825 31.0519 204.088 31.1874C204.504 31.4436 204.666 31.7702 204.573 32.1673C204.486 32.6188 204.181 32.8469 203.657 32.8514C203.051 32.8653 202.463 32.9049 201.89 32.9702C201.318 33.0355 200.722 33.1312 200.101 33.2572C200.05 33.2906 199.97 33.3136 199.861 33.326C199.779 33.3354 199.711 33.3431 199.656 33.3494C199.287 33.5019 199.078 33.6085 199.03 33.6692C198.979 33.7027 198.975 33.9102 199.018 34.2917C199.076 35.2788 199.12 36.2676 199.15 37.2579C199.204 38.2178 199.246 39.193 199.277 40.1833C199.245 40.8769 199.19 41.601 199.11 42.3553C199.058 43.1066 199.004 43.8443 198.949 44.5683C198.963 45.174 198.951 45.7964 198.913 46.4356C198.873 47.0475 198.847 47.6715 198.837 48.3076L198.87 48.5937C198.723 49.2453 198.41 49.64 197.928 49.7777C197.329 49.8461 196.884 49.5793 196.595 48.9775C196.47 48.6053 196.385 48.2285 196.342 47.847C196.298 47.4655 196.243 47.0992 196.175 46.7481C196.129 46.5877 196.098 46.4394 196.083 46.3031C196.094 46.1638 196.065 46.0291 195.995 45.899C195.8 46.363 195.603 46.8134 195.404 47.2501C195.205 47.6868 194.992 48.1115 194.763 48.524C194.531 48.9094 194.268 49.2706 193.975 49.6076C193.683 49.9447 193.358 50.244 193.001 50.5055C192.442 50.9281 191.763 51.1436 190.963 51.1521C190.191 51.1574 189.498 50.8914 188.885 50.3541C188.542 50.0068 188.226 49.6564 187.937 49.3029C187.648 48.9494 187.397 48.564 187.184 48.1466C186.864 47.5206 186.583 46.8763 186.342 46.2138C186.125 45.5208 185.949 44.8232 185.813 44.121C185.455 42.6713 185.205 41.2091 185.065 39.7346C184.951 38.2569 184.906 36.7714 184.929 35.2782C184.964 33.894 185.084 32.5277 185.289 31.1793C185.494 29.8309 185.782 28.4868 186.154 27.147C186.679 25.4585 187.444 23.8116 188.447 22.2065C188.785 21.7815 189.154 21.3806 189.552 21.0038C189.948 20.5999 190.391 20.2457 190.88 19.9414C191.555 19.5608 192.349 19.3873 193.264 19.421C194.203 19.4243 195.049 19.8246 195.802 20.622C196.182 21.0479 196.536 21.4905 196.865 21.9499C197.19 22.3821 197.442 22.8917 197.619 23.4787C197.662 23.6119 197.679 23.7617 197.67 23.9283C197.689 24.0918 197.679 24.2448 197.64 24.3873C197.586 24.6418 197.481 24.8057 197.323 24.8789C197.163 24.9248 196.976 24.8632 196.764 24.6943C196.643 24.5977 196.535 24.4996 196.441 24.3999C196.343 24.273 196.234 24.1612 196.112 24.0647C195.891 23.814 195.631 23.5951 195.334 23.4082C195.06 23.191 194.765 23.0177 194.446 22.8884C194.067 22.7108 193.731 22.6664 193.437 22.7551C193.168 22.8134 192.896 22.9687 192.621 23.2209C192.198 23.628 191.836 24.0834 191.535 24.587C191.233 25.0907 190.961 25.6049 190.717 26.1295C190.278 27.1182 189.923 28.1248 189.654 29.1493C189.384 30.1738 189.186 31.2178 189.059 32.2812C188.893 33.4871 188.811 34.711 188.815 35.9527C188.816 37.1673 188.859 38.3907 188.944 39.6232C189.056 40.6041 189.197 41.5956 189.366 42.5976C189.56 43.5693 189.849 44.53 190.233 45.4799C190.438 46.0639 190.708 46.6128 191.042 47.1267C191.207 47.3564 191.331 47.4802 191.416 47.4981C191.498 47.4888 191.623 47.3779 191.792 47.1653C192.163 46.7917 192.462 46.385 192.688 45.9452C192.911 45.4781 193.118 44.9989 193.311 44.5077C193.56 43.7892 193.767 43.0617 193.931 42.3252C194.12 41.5584 194.284 40.8219 194.424 40.1158C194.678 38.7067 194.892 37.3159 195.066 35.9434C195.138 35.6039 195.146 35.189 195.09 34.6985ZM227.274 25.3537C227.523 26.5675 227.731 27.7859 227.898 29.009C228.092 30.229 228.314 31.4459 228.563 32.6597C228.707 33.4437 228.838 34.2293 228.956 35.0164C229.1 35.8004 229.245 36.5844 229.39 37.3684C229.578 38.5339 229.765 39.6858 229.95 40.8241C230.159 41.9319 230.383 43.0519 230.623 44.1839C230.672 44.3716 230.736 44.5713 230.816 44.7831C230.892 44.9676 230.956 45.1673 231.008 45.3822C231.057 45.5698 231.053 45.7773 230.996 46.0046C230.939 46.2319 230.823 46.4246 230.648 46.5826C230.271 46.9017 229.83 46.9106 229.326 46.6092C228.941 46.3772 228.638 46.0252 228.419 45.5534C228.112 45.0364 227.856 44.4859 227.651 43.902C227.443 43.2908 227.251 42.6917 227.073 42.1046C226.605 40.419 226.189 38.7135 225.827 36.9882C225.464 35.2629 225.143 33.533 224.862 31.7984C224.763 31.1747 224.651 30.5527 224.525 29.9321C224.396 29.2844 224.283 28.6623 224.188 28.0659C223.864 25.9498 223.58 23.829 223.338 21.7036C223.285 21.2404 223.247 20.7892 223.225 20.3501C223.199 19.8837 223.189 19.4295 223.193 18.9873C223.217 18.7086 223.198 18.5451 223.137 18.4968C223.101 18.4181 222.96 18.3928 222.715 18.4208C221.628 18.5724 220.542 18.7376 219.459 18.9165C218.375 19.0954 217.325 19.3256 216.308 19.6073C216.12 19.6563 215.919 19.7069 215.704 19.759C215.513 19.7807 215.307 19.7904 215.086 19.7881C214.471 19.7202 214.021 19.399 213.734 18.8244C213.496 18.189 213.667 17.6313 214.247 17.151C214.495 16.9019 214.82 16.7268 215.222 16.6257C216.333 16.1954 217.44 15.862 218.545 15.6255C219.674 15.3587 220.823 15.1448 221.991 14.9838C222.972 14.8719 223.956 14.7872 224.943 14.7298C225.931 14.6723 226.919 14.6285 227.91 14.5984C229.121 14.5706 230.322 14.5716 231.512 14.6014C232.73 14.6281 233.933 14.7669 235.121 15.0178C235.318 15.0505 235.503 15.0984 235.675 15.1615C235.872 15.1942 236.073 15.2542 236.276 15.3414C237.046 15.5572 237.401 16.0135 237.343 16.7103C237.281 17.3798 236.869 17.7581 236.106 17.8452C235.316 17.9353 234.524 18.0119 233.731 18.0748C232.964 18.1346 232.18 18.1551 231.377 18.1363C230.657 18.1081 229.925 18.1088 229.183 18.1382C228.438 18.1404 227.693 18.1426 226.948 18.1448C226.696 18.1183 226.548 18.149 226.503 18.237C226.482 18.2946 226.485 18.446 226.513 18.6913C226.521 19.2425 226.571 19.8026 226.664 20.3717C226.756 20.9409 226.834 21.4979 226.896 22.0429L227.274 25.3537ZM250.28 29.0638C249.542 29.3689 248.832 29.6844 248.152 30.0105C247.471 30.3366 246.804 30.6611 246.151 30.9841C245.915 31.0938 245.667 31.2187 245.407 31.3588C245.174 31.4958 244.942 31.6328 244.709 31.7698C244.385 31.8343 244.246 32.071 244.293 32.4797C244.445 33.5666 244.595 34.6398 244.743 35.6994C244.916 36.7287 245.104 37.77 245.307 38.8234C245.439 39.4984 245.57 40.1598 245.699 40.8076C245.828 41.4553 245.969 42.0879 246.122 42.7053C246.208 42.9716 246.195 43.2215 246.084 43.455C245.969 43.6613 245.806 43.8042 245.594 43.8835C245.41 43.9598 245.202 43.9559 244.972 43.8717C244.741 43.7876 244.533 43.6595 244.348 43.4874C244.141 43.1246 243.977 42.7707 243.854 42.4258C243.464 41.4214 243.128 40.4108 242.846 39.394C242.564 38.3772 242.296 37.3588 242.042 36.3389C241.904 35.8577 241.766 35.3766 241.629 34.8954C241.518 34.4111 241.408 33.9269 241.297 33.4426C241.245 33.2277 241.181 33.028 241.105 32.8435C241.025 32.6317 240.893 32.4398 240.708 32.2677C240.307 31.8994 240.21 31.4135 240.417 30.8102C240.519 30.4949 240.531 30.2314 240.451 30.0196C240.068 28.3519 239.781 26.687 239.592 25.0248C239.399 23.3353 239.221 21.6579 239.059 19.9926C239.051 19.4414 239.033 18.919 239.004 18.4254C238.975 17.9318 238.959 17.423 238.954 16.8991C239.019 16.2568 239.232 15.708 239.595 15.2526C239.932 14.8276 240.367 14.64 240.897 14.69C241.427 14.7399 241.832 15.0249 242.112 15.545C242.276 15.7747 242.374 16.0258 242.405 16.2983C242.46 16.5404 242.505 16.8114 242.539 17.1111C242.658 18.1466 242.777 19.1957 242.898 20.2584C243.047 21.318 243.167 22.3671 243.258 23.4057C243.342 24.1414 243.439 24.8756 243.55 25.6082C243.686 26.3105 243.768 27.0326 243.797 27.7745C243.825 28.0198 243.87 28.1666 243.931 28.2148C244.015 28.2328 244.177 28.2005 244.416 28.118C245.203 27.7522 246.009 27.4394 246.835 27.1795C247.685 26.8893 248.525 26.6279 249.354 26.3952C249.648 26.3065 249.819 26.2318 249.867 26.1711C249.912 26.0831 249.919 25.9029 249.888 25.6304C249.771 24.8433 249.653 24.0562 249.536 23.2691C249.442 22.4516 249.378 21.6446 249.342 20.8482C249.316 20.1335 249.303 19.4172 249.304 18.6994C249.305 17.9816 249.362 17.2712 249.475 16.5682C249.528 16.0653 249.669 15.6075 249.898 15.1949C250.064 14.9552 250.236 14.7699 250.414 14.6392C250.593 14.5084 250.82 14.4411 251.095 14.4373C251.398 14.4303 251.628 14.5144 251.786 14.6896C251.969 14.8345 252.128 15.0233 252.265 15.2561C252.451 15.6765 252.599 16.1289 252.71 16.6132C252.82 17.0974 252.902 17.5712 252.955 18.0344C253.061 19.2093 253.156 20.3993 253.238 21.6044C253.348 22.8065 253.416 24.0133 253.444 25.2247C253.463 25.3882 253.483 25.5653 253.505 25.756C253.523 25.9195 253.581 26.0647 253.679 26.1916C253.928 26.4393 253.983 26.6814 253.844 26.9181C253.639 27.3003 253.562 27.7094 253.612 28.1454C253.658 28.5541 253.678 28.966 253.67 29.3809C253.758 30.6406 253.835 31.9155 253.899 33.2055C253.991 34.4924 254.082 35.7794 254.174 37.0663L254.561 40.4588C254.589 40.7041 254.631 40.9478 254.686 41.1899C254.768 41.4289 254.851 41.668 254.933 41.907C255.098 42.385 254.978 42.7852 254.573 43.1074C254.241 43.3386 253.837 43.3019 253.36 42.9974C253.093 42.8347 252.891 42.6369 252.754 42.4041C252.641 42.1409 252.529 41.8777 252.416 41.6146C252.193 41.1155 252.023 40.5966 251.907 40.0578C251.817 39.5159 251.714 38.9756 251.598 38.4368C251.364 37.1109 251.172 35.794 251.023 34.4861C250.901 33.175 250.709 31.8581 250.448 30.5353C250.395 30.3204 250.355 30.0903 250.327 29.8451C250.327 29.5967 250.311 29.3363 250.28 29.0638ZM257.807 27.5424C257.589 26.3528 257.425 25.1569 257.315 23.9548C257.206 22.7528 257.055 21.5554 256.864 20.3626C256.784 19.9025 256.731 19.4392 256.705 18.9729C256.707 18.5034 256.697 18.0492 256.674 17.6101C256.649 17.3921 256.614 17.2029 256.568 17.0425C256.522 16.8821 256.42 16.7143 256.262 16.5391C255.919 16.1918 255.749 15.7971 255.754 15.3549C255.783 14.8823 255.986 14.4865 256.364 14.1673C256.811 13.7299 257.289 13.4407 257.797 13.2999C258.763 13.0517 259.726 12.7899 260.689 12.5145C261.651 12.2391 262.621 12.0318 263.599 11.8926C264.062 11.8397 264.513 11.8021 264.952 11.7796C265.416 11.7267 265.872 11.7299 266.32 11.7892C266.993 11.878 267.604 12.1534 268.153 12.6151C268.642 13.0286 268.766 13.5113 268.526 14.0633C268.227 14.5942 267.764 14.7712 267.137 14.5944C266.794 14.4954 266.448 14.4798 266.096 14.5475C265.742 14.5879 265.376 14.6435 264.998 14.7143C264.274 14.9072 263.568 15.1259 262.878 15.3702C262.188 15.6145 261.497 15.8452 260.804 16.0623C260.432 16.1876 260.264 16.4137 260.301 16.7407C260.591 18.3087 260.801 19.9133 260.933 21.5545C261.09 23.1653 261.287 24.7715 261.525 26.373C261.616 26.6937 261.693 26.8783 261.753 26.9265C261.811 26.9476 261.987 26.9137 262.28 26.825C262.761 26.6873 263.247 26.5905 263.738 26.5345C264.255 26.4755 264.758 26.4043 265.245 26.3211C265.627 26.2776 265.995 26.2356 266.349 26.1952C266.73 26.1516 267.127 26.1202 267.539 26.1008C268.166 26.0293 268.58 26.2719 268.781 26.8286C268.925 27.3642 268.713 27.8025 268.145 28.1434C267.812 28.3746 267.419 28.5574 266.965 28.692C266.535 28.7963 266.134 28.9111 265.762 29.0363C264.694 29.3514 263.65 29.6362 262.63 29.8906C262.415 29.9427 262.287 30.0264 262.245 30.1416C262.202 30.2568 262.194 30.4234 262.219 30.6414C262.425 31.722 262.66 32.8132 262.923 33.9149C263.184 34.9893 263.484 36.0454 263.823 37.0833C264.037 37.749 264.203 38.1165 264.322 38.1858C264.464 38.2247 264.825 38.0041 265.406 37.5238C266.088 36.9767 266.724 36.3796 267.313 35.7328C267.898 35.0587 268.425 34.3499 268.892 33.6065C269.124 33.2212 269.382 32.9433 269.667 32.7728C269.975 32.572 270.29 32.5499 270.611 32.7064C270.933 32.863 271.115 33.132 271.159 33.5135C271.144 33.6256 271.131 33.7513 271.119 33.8907C271.132 33.9997 271.118 34.1254 271.079 34.2679C271.033 34.8253 270.846 35.371 270.521 35.905C269.437 38.0162 268.003 39.8498 266.221 41.4058C265.363 42.111 264.498 42.3891 263.625 42.2403C262.78 42.0883 262.08 41.6436 261.527 40.9063C261.043 40.2989 260.667 39.6655 260.399 39.006C260.155 38.3162 259.922 37.6112 259.702 36.891C259.387 35.8228 259.111 34.7363 258.875 33.6315C258.638 32.5267 258.431 31.4325 258.252 30.3487C258.172 29.8886 258.105 29.4269 258.052 28.9637C257.999 28.5004 257.918 28.0267 257.807 27.5424ZM121.411 84.2662C121.55 85.2441 121.564 86.2087 121.451 87.16C121.339 88.1114 121.144 89.0584 120.865 90.0012C120.412 91.5986 119.724 93.0711 118.802 94.4186C117.903 95.7357 116.856 96.9594 115.659 98.0896C115.01 98.6882 114.342 99.2474 113.656 99.7673C112.998 100.284 112.29 100.738 111.534 101.127C111.298 101.237 111.199 101.456 111.236 101.783C111.336 102.655 111.403 103.365 111.438 103.913C111.5 104.458 111.549 105.004 111.584 105.552C111.646 106.097 111.727 106.806 111.826 107.678C111.909 107.917 111.978 108.157 112.033 108.399C112.115 108.638 112.143 108.884 112.117 109.135C112.216 110.007 111.942 110.508 111.294 110.637C110.998 110.698 110.687 110.637 110.362 110.453C110.068 110.294 109.846 110.043 109.697 109.701C109.505 109.226 109.326 108.75 109.161 108.272C108.993 107.766 108.84 107.273 108.702 106.792C108.519 106.15 108.369 105.684 108.253 105.394C108.164 105.1 108.076 104.807 107.987 104.513C107.895 104.193 107.786 103.722 107.66 103.101L107.604 102.611C107.6 102.335 107.559 102.092 107.48 101.88C107.424 101.638 107.287 101.405 107.069 101.182C106.398 100.623 106.385 100.031 107.032 99.4053C107.155 99.2807 107.213 99.1776 107.203 99.0958C107.221 99.011 107.224 98.9141 107.211 98.8051C107.11 97.188 106.972 95.6165 106.798 94.0906C106.715 92.8854 106.635 91.6938 106.556 90.5159C106.473 89.3107 106.392 88.1191 106.313 86.9412C106.25 86.1479 106.245 85.3756 106.297 84.6243C106.347 83.8458 106.384 83.0824 106.409 82.3343C106.424 82.2221 106.44 82.1237 106.458 82.0388C106.476 81.9539 106.451 81.8601 106.384 81.7574C106.274 81.2731 106.307 80.8414 106.485 80.4623C106.69 80.0801 106.94 79.734 107.236 79.4242C108.447 78.1819 109.91 77.3386 111.626 76.8944C112.159 76.7232 112.689 76.649 113.216 76.6717C113.77 76.6912 114.318 76.7805 114.861 76.9394C118.119 77.6718 120.251 79.6645 121.257 82.9174C121.309 83.1323 121.334 83.3502 121.332 83.5713C121.357 83.7893 121.383 84.021 121.411 84.2662ZM110.121 88.7427C110.21 90.0023 110.278 91.0849 110.326 91.9904C110.401 92.8927 110.472 93.7541 110.538 94.5747C110.585 94.9835 110.63 95.3786 110.673 95.7601C110.717 96.1416 110.733 96.5262 110.722 96.9139C110.728 96.9684 110.738 97.0501 110.75 97.1591C110.787 97.2378 110.835 97.3012 110.896 97.3495C111.008 97.3643 111.088 97.3414 111.137 97.2806C111.212 97.2168 111.274 97.1545 111.322 97.0938C111.673 96.7778 112.01 96.4633 112.333 96.1504C112.683 95.8344 113.02 95.5199 113.343 95.207C113.92 94.6995 114.438 94.1574 114.897 93.5806C115.352 92.9765 115.777 92.3483 116.172 91.696C116.612 90.9557 116.964 90.1702 117.228 89.3395C117.492 88.5089 117.672 87.6603 117.766 86.7938C117.909 86.115 117.947 85.4758 117.878 84.8763C117.835 84.4948 117.767 84.1437 117.675 83.8229C117.58 83.4749 117.446 83.1452 117.273 82.8337C116.789 81.978 116.137 81.3485 115.318 80.945C114.496 80.5144 113.607 80.3398 112.65 80.4214C111.693 80.5029 110.758 80.8994 109.846 81.6108C109.595 81.8327 109.5 82.0919 109.562 82.3885L109.688 83.4921C109.857 84.4941 109.956 85.4767 109.983 86.4397C110.034 87.3724 110.08 88.1401 110.121 88.7427ZM128.608 81.9544C128.774 83.8953 128.931 85.7545 129.079 87.5319C129.227 89.3093 129.412 91.0548 129.635 92.7684C129.829 93.9884 129.997 95.2115 130.137 96.4378C130.304 97.6609 130.483 98.8688 130.674 100.062C130.788 100.821 130.889 101.583 130.976 102.346C131.091 103.106 131.244 103.847 131.437 104.571C131.544 105.028 131.678 105.468 131.836 105.891C131.952 106.182 131.992 106.412 131.956 106.582C131.948 106.748 131.829 106.914 131.599 107.078C131.372 107.269 131.12 107.353 130.841 107.33C130.562 107.307 130.327 107.182 130.136 106.955C129.911 106.677 129.71 106.369 129.533 106.03C129.357 105.691 129.221 105.348 129.126 105C128.808 103.904 128.515 102.792 128.248 101.663C128.009 100.531 127.771 99.4129 127.534 98.3081C127.285 96.846 127.023 95.399 126.749 93.9672C126.5 92.5051 126.25 91.043 126 89.5808C125.717 88.0673 125.463 86.5643 125.237 85.0718C125.009 83.5521 124.916 82.0168 124.96 80.466C124.968 80.051 125.005 79.6466 125.07 79.2526C125.133 78.8315 125.181 78.4118 125.216 77.9938C125.264 77.6847 125.38 77.3679 125.563 77.0432C125.678 76.8369 125.811 76.67 125.962 76.5423C126.113 76.4147 126.325 76.3353 126.597 76.3042C126.845 76.3035 127.047 76.3771 127.202 76.525C127.384 76.6699 127.515 76.8482 127.594 77.06C127.807 77.4773 127.953 77.9024 128.03 78.3353C128.131 78.7378 128.208 79.1707 128.261 79.6339C128.365 80.0637 128.455 80.495 128.532 80.9279C128.606 81.3335 128.632 81.6757 128.608 81.9544ZM133.403 91.4276C133.216 89.7927 133.17 88.183 133.266 86.5987C133.361 85.0144 133.638 83.4508 134.097 81.9078C134.417 80.6015 134.978 79.3505 135.78 78.1548C136.118 77.7298 136.473 77.3305 136.844 76.9568C137.216 76.5832 137.636 76.273 138.105 76.0263C138.879 75.5516 139.785 75.3929 140.825 75.5504C141.864 75.7078 142.742 76.2701 143.46 77.2372C143.855 77.7993 144.131 78.4027 144.288 79.0474C144.441 79.6648 144.407 80.3312 144.185 81.0467C144.179 81.2405 144.116 81.4133 143.995 81.5651C143.881 81.7714 143.728 81.8854 143.537 81.9072C143.344 81.9017 143.168 81.8114 143.01 81.6362C142.97 81.5303 142.932 81.438 142.895 81.3594C142.859 81.2808 142.821 81.1885 142.781 81.0826C142.552 80.529 142.218 80.1393 141.778 79.9135C141.335 79.6603 140.83 79.4695 140.263 79.341C140.066 79.3082 139.906 79.3541 139.782 79.4787C139.655 79.576 139.53 79.6869 139.406 79.8114C139.162 80.0878 138.947 80.3882 138.764 80.7128C138.58 81.0375 138.41 81.3605 138.253 81.682C137.97 82.3492 137.733 83.0525 137.542 83.7921C137.374 84.5013 137.249 85.2195 137.166 85.9466C137.009 87.9521 137.054 89.9206 137.302 91.8522C137.574 93.7535 138.12 95.6372 138.94 97.5035C139.344 98.6169 140.011 99.6311 140.944 100.546C141.348 100.942 141.826 101.26 142.378 101.5C142.936 101.796 143.415 101.879 143.814 101.751C144.238 101.592 144.615 101.273 144.947 100.793C145.213 100.459 145.424 100.131 145.58 99.81C145.734 99.4612 145.889 99.1261 146.045 98.8046C146.108 98.6318 146.173 98.4726 146.239 98.327C146.332 98.1783 146.414 98.0448 146.483 97.9265C146.845 97.4711 147.272 97.3396 147.763 97.532C147.994 97.6161 148.176 97.761 148.31 97.9665C148.471 98.169 148.538 98.3959 148.512 98.6474C148.372 99.6018 148.148 100.538 147.838 101.457C147.526 102.348 146.997 103.154 146.251 103.874C144.958 105.126 143.428 105.507 141.661 105.019C140.782 104.815 139.97 104.467 139.223 103.972C138.504 103.474 137.857 102.886 137.282 102.206C136.678 101.502 136.179 100.758 135.786 99.9752C135.39 99.1647 135.046 98.3343 134.756 97.4841C134.393 96.4766 134.099 95.4749 133.875 94.4792C133.678 93.4803 133.521 92.4631 133.403 91.4276ZM159.483 82.4066C159.732 83.6203 159.94 84.8388 160.107 86.0619C160.301 87.2819 160.523 88.4988 160.772 89.7126C160.917 90.4966 161.048 91.2821 161.165 92.0693C161.31 92.8533 161.455 93.6373 161.599 94.4213C161.787 95.5868 161.974 96.7387 162.159 97.8769C162.368 98.9848 162.593 100.105 162.832 101.237C162.881 101.424 162.946 101.624 163.025 101.836C163.101 102.02 163.165 102.22 163.217 102.435C163.266 102.623 163.263 102.83 163.206 103.057C163.149 103.285 163.033 103.477 162.858 103.635C162.48 103.955 162.039 103.963 161.536 103.662C161.15 103.43 160.848 103.078 160.628 102.606C160.321 102.089 160.065 101.539 159.86 100.955C159.653 100.344 159.46 99.7445 159.283 99.1575C158.814 97.4719 158.399 95.7664 158.036 94.0411C157.674 92.3158 157.352 90.5858 157.071 88.8512C156.973 88.2276 156.86 87.6055 156.734 86.985C156.605 86.3372 156.493 85.7152 156.397 85.1188C156.073 83.0027 155.79 80.8819 155.547 78.7565C155.494 78.2932 155.456 77.8421 155.434 77.403C155.408 76.9366 155.398 76.4823 155.403 76.0401C155.426 75.7614 155.407 75.5979 155.347 75.5496C155.31 75.471 155.169 75.4457 154.924 75.4737C153.837 75.6253 152.752 75.7905 151.668 75.9694C150.584 76.1482 149.534 76.3785 148.517 76.6601C148.33 76.7091 148.128 76.7597 147.913 76.8118C147.723 76.8336 147.517 76.8433 147.296 76.8409C146.681 76.7731 146.23 76.4518 145.944 75.8772C145.705 75.2419 145.876 74.6841 146.456 74.2039C146.704 73.9548 147.029 73.7797 147.432 73.6785C148.542 73.2482 149.649 72.9148 150.754 72.6783C151.883 72.4115 153.032 72.1976 154.201 72.0367C155.182 71.9248 156.166 71.8401 157.153 71.7826C158.14 71.7252 159.129 71.6814 160.119 71.6512C161.33 71.6234 162.531 71.6244 163.722 71.6542C164.939 71.6809 166.142 71.8197 167.33 72.0706C167.527 72.1033 167.712 72.1513 167.885 72.2144C168.082 72.2471 168.282 72.3071 168.485 72.3943C169.255 72.6101 169.611 73.0664 169.552 73.7632C169.491 74.4327 169.078 74.811 168.315 74.898C167.525 74.9882 166.733 75.0647 165.94 75.1277C165.174 75.1875 164.389 75.208 163.587 75.1891C162.866 75.161 162.134 75.1616 161.392 75.1911C160.647 75.1933 159.902 75.1955 159.157 75.1977C158.906 75.1711 158.758 75.2019 158.712 75.2898C158.691 75.3474 158.695 75.4989 158.723 75.7441C158.73 76.2953 158.781 76.8555 158.873 77.4246C158.966 77.9937 159.043 78.5508 159.105 79.0958L159.483 82.4066ZM172.232 80.5379C172.104 79.4206 172.001 78.3972 171.923 77.4676C171.869 76.5077 171.87 75.5552 171.928 74.61C171.993 73.9678 172.073 73.3375 172.168 72.7194C172.263 72.1013 172.457 71.4995 172.749 70.9141C172.941 70.4229 173.199 70.0208 173.522 69.7079C173.724 69.5468 173.947 69.4386 174.189 69.3834C174.431 69.3281 174.655 69.3578 174.861 69.4722C175.119 69.5533 175.301 69.6981 175.408 69.9068C175.514 70.1154 175.582 70.3424 175.61 70.5876C175.633 71.2751 175.641 71.9505 175.634 72.6138C175.651 73.2467 175.671 73.9069 175.694 74.5944C175.758 75.6361 175.809 76.6929 175.849 77.765C175.913 78.8067 176.017 79.8437 176.163 80.8761C176.388 82.3686 176.68 83.8397 177.039 85.2893C177.394 86.7118 177.845 88.1234 178.391 89.524C178.666 90.238 178.982 90.9473 179.338 91.652C179.719 92.3262 180.125 92.9838 180.557 93.6246C180.858 94.0871 181.197 94.5177 181.574 94.9164C181.948 95.2878 182.333 95.644 182.731 95.9851C182.889 96.1603 183.053 96.2658 183.223 96.3017C183.848 96.6996 184.435 96.6464 184.985 96.142C185.362 95.8229 185.683 95.4827 185.945 95.1215C186.232 94.73 186.489 94.3279 186.718 93.9153C187.7 92.1194 188.473 90.1818 189.036 88.1024C189.435 86.7595 189.737 85.4139 189.942 84.0655C190.144 82.6899 190.261 81.2963 190.293 79.8849C190.342 79.1063 190.337 78.334 190.277 77.5679C190.217 76.8018 190.171 76.0342 190.139 75.265C190.091 74.3596 190.03 73.4693 189.958 72.5942C189.91 71.6888 189.767 70.7942 189.528 69.9105C189.497 69.638 189.518 69.3457 189.593 69.0335C189.722 68.4668 190.043 68.1402 190.558 68.0539C191.07 67.9403 191.495 68.0436 191.836 68.3636C192.075 68.5295 192.267 68.7561 192.41 69.0434C192.55 69.3034 192.665 69.5802 192.753 69.8737L192.786 70.1599C193.038 72.3671 193.25 74.5925 193.423 76.8363C193.621 79.0497 193.599 81.2744 193.357 83.5103C193.304 84.2615 193.21 85.0039 193.073 85.7372C192.932 86.4433 192.78 87.1646 192.616 87.9011C192.416 89.0556 192.133 90.2058 191.767 91.3518C191.425 92.4673 191.012 93.5634 190.528 94.6401C190.242 95.28 189.913 95.9109 189.543 96.5329C189.169 97.1276 188.751 97.6998 188.289 98.2493C187.683 98.981 186.988 99.5434 186.205 99.9364C185.448 100.326 184.586 100.508 183.617 100.48C182.947 100.419 182.376 100.249 181.902 99.9718C181.178 99.6681 180.524 99.2596 179.941 98.7465C179.385 98.2302 178.85 97.6563 178.336 97.0248C177.44 95.9402 176.659 94.787 175.996 93.5654C175.329 92.3165 174.766 91.0143 174.308 89.6588C173.77 88.0915 173.331 86.5406 172.99 85.006C172.646 83.4442 172.393 81.9548 172.232 80.5379ZM205.919 89.2401C206.286 89.3087 206.627 89.394 206.942 89.4961C207.282 89.5677 207.606 89.6274 207.915 89.6749C208.821 89.8752 209.705 90.1194 210.566 90.4076C211.427 90.6958 212.265 91.028 213.081 91.4042C213.66 91.6418 214.229 91.9081 214.787 92.2033C215.345 92.4985 215.888 92.7816 216.416 93.0526C216.625 93.1943 216.821 93.3376 217.003 93.4824C217.182 93.6 217.337 93.748 217.468 93.9263C217.693 94.2043 217.838 94.5052 217.902 94.8291C217.991 95.1226 217.957 95.4301 217.801 95.7516C217.589 96.0794 217.339 96.3012 217.048 96.4171C216.758 96.5331 216.419 96.5856 216.031 96.5746C215.834 96.5419 215.622 96.4971 215.395 96.4402C215.195 96.3802 214.993 96.3066 214.79 96.2194C214.053 95.8066 213.319 95.4211 212.588 95.0628C211.853 94.6773 211.085 94.351 210.281 94.0838C209.129 93.6632 207.944 93.3153 206.726 93.0403C205.504 92.738 204.281 92.5463 203.058 92.4651C202.976 92.4744 202.881 92.4853 202.772 92.4977C202.687 92.4798 202.605 92.4891 202.526 92.5257C202.567 92.8799 202.61 93.2614 202.657 93.6702C202.7 94.0517 202.758 94.4316 202.828 94.81C202.948 95.376 203.056 95.9572 203.151 96.5536C203.247 97.1499 203.343 97.7463 203.438 98.3427C203.506 98.6938 203.496 98.971 203.409 99.1742C203.346 99.347 203.212 99.5003 203.006 99.6342C202.453 99.863 201.968 99.7251 201.551 99.2205C201.235 98.8701 200.984 98.4847 200.798 98.0643C200.639 97.6407 200.506 97.2004 200.399 96.7434C200.099 95.8114 199.827 94.8764 199.582 93.9382C199.361 92.9697 199.128 92.0163 198.883 91.0781C198.598 90.0341 198.354 88.9853 198.151 87.9319C197.972 86.8482 197.809 85.7765 197.66 84.7169C197.432 83.1971 197.215 81.6622 197.011 80.1121C196.803 78.5348 196.624 76.9679 196.474 75.4116C196.412 74.8666 196.377 74.3185 196.37 73.7673C196.362 73.2161 196.354 72.6649 196.346 72.1137C196.33 71.7291 196.4 71.3761 196.557 71.0546C196.713 70.7331 196.99 70.4945 197.386 70.3389C197.462 70.275 197.525 70.2264 197.577 70.1929C197.655 70.1563 197.705 70.1093 197.726 70.0516C198.508 69.1619 199.366 68.4567 200.3 67.9361C201.259 67.385 202.269 66.9247 203.331 66.5551C204.762 66.033 206.191 65.9803 207.619 66.3971C209.071 66.7835 210.292 67.5689 211.283 68.7532C211.83 69.4361 212.246 70.1754 212.53 70.9711C212.838 71.7364 213.015 72.5582 213.06 73.4364C213.178 74.4719 213.157 75.4956 212.996 76.5077C212.833 77.4925 212.586 78.473 212.255 79.4493C211.655 81.2016 210.858 82.8107 209.866 84.2765C208.874 85.7423 207.764 87.1388 206.535 88.466C206.438 88.5874 206.327 88.6968 206.2 88.7941C206.1 88.8883 206.007 89.0369 205.919 89.2401ZM201.749 87.8941C201.94 87.8723 202.073 87.8295 202.149 87.7657C202.248 87.6715 202.35 87.5909 202.452 87.524C203.132 86.9496 203.766 86.3389 204.355 85.6921C204.968 85.0148 205.525 84.3302 206.025 83.6382C206.623 82.8247 207.162 81.9903 207.644 81.1347C208.123 80.252 208.53 79.3361 208.863 78.3871C209.2 77.4654 209.425 76.5425 209.541 75.6184C209.68 74.6639 209.626 73.704 209.378 72.7386C209.218 72.0667 208.867 71.4029 208.323 70.7473C207.806 70.0885 207.046 69.7198 206.043 69.6409C205.683 69.6269 205.312 69.6416 204.93 69.6851C204.573 69.6983 204.235 69.7644 203.918 69.8835C203.201 70.1309 202.517 70.4297 201.867 70.7799C201.214 71.1029 200.58 71.4788 199.967 71.9077C199.665 72.163 199.531 72.4405 199.565 72.7403C199.678 73.2518 199.765 73.7664 199.824 74.2841C199.88 74.7746 199.936 75.2651 199.992 75.7556C200.16 77.2271 200.34 78.6833 200.532 80.1244C200.751 81.5624 200.957 83.002 201.149 84.4431C201.268 85.0091 201.376 85.5903 201.472 86.1867C201.564 86.7558 201.657 87.3249 201.749 87.8941ZM218.916 81.2979C218.697 80.1082 218.533 78.9124 218.424 77.7103C218.314 76.5082 218.164 75.3108 217.972 74.1181C217.892 73.6579 217.839 73.1947 217.814 72.7284C217.815 72.2589 217.805 71.8046 217.783 71.3655C217.758 71.1475 217.722 70.9583 217.676 70.798C217.63 70.6376 217.529 70.4698 217.371 70.2946C217.027 69.9473 216.858 69.5525 216.863 69.1103C216.892 68.6378 217.095 68.2419 217.473 67.9228C217.92 67.4853 218.397 67.1962 218.906 67.0554C219.871 66.8072 220.835 66.5454 221.797 66.27C222.76 65.9945 223.73 65.7872 224.707 65.6481C225.171 65.5952 225.622 65.5575 226.061 65.535C226.524 65.4822 226.98 65.4854 227.428 65.5446C228.101 65.6335 228.712 65.9088 229.262 66.3706C229.751 66.7841 229.875 67.2668 229.634 67.8187C229.336 68.3496 228.873 68.5267 228.245 68.3498C227.903 68.2509 227.556 68.2353 227.205 68.3029C226.851 68.3434 226.484 68.399 226.106 68.4697C225.383 68.6627 224.676 68.8813 223.986 69.1256C223.296 69.37 222.605 69.6007 221.912 69.8178C221.54 69.943 221.373 70.1692 221.41 70.4962C221.699 72.0642 221.91 73.6688 222.042 75.31C222.198 76.9208 222.395 78.5269 222.633 80.1284C222.725 80.4492 222.801 80.6337 222.862 80.682C222.92 80.703 223.095 80.6692 223.389 80.5805C223.87 80.4428 224.356 80.346 224.846 80.29C225.364 80.2309 225.866 80.1598 226.354 80.0766C226.735 80.033 227.103 79.9911 227.457 79.9506C227.839 79.9071 228.236 79.8756 228.647 79.8563C229.274 79.7847 229.688 80.0273 229.89 80.584C230.034 81.1197 229.821 81.558 229.253 81.8989C228.921 82.13 228.527 82.3129 228.074 82.4475C227.644 82.5518 227.243 82.6665 226.871 82.7918C225.802 83.1069 224.758 83.3917 223.738 83.646C223.524 83.6982 223.395 83.7818 223.353 83.8971C223.311 84.0123 223.302 84.1789 223.327 84.3969C223.533 85.4775 223.768 86.5687 224.032 87.6703C224.293 88.7448 224.593 89.8009 224.932 90.8388C225.146 91.5044 225.312 91.8719 225.43 91.9412C225.573 91.9802 225.934 91.7596 226.514 91.2793C227.197 90.7321 227.833 90.1351 228.421 89.4882C229.007 88.8141 229.533 88.1054 230.001 87.362C230.233 86.9766 230.491 86.6987 230.775 86.5283C231.083 86.3275 231.398 86.3054 231.72 86.4619C232.041 86.6185 232.224 86.8875 232.267 87.269C232.253 87.3811 232.239 87.5068 232.228 87.6462C232.24 87.7551 232.227 87.8809 232.188 88.0233C232.141 88.5808 231.955 89.1265 231.629 89.6605C230.545 91.7717 229.112 93.6053 227.33 95.1612C226.472 95.8664 225.606 96.1446 224.733 95.9957C223.888 95.8438 223.189 95.3991 222.635 94.6617C222.152 94.0544 221.776 93.421 221.507 92.7615C221.263 92.0717 221.031 91.3667 220.811 90.6465C220.496 89.5783 220.22 88.4918 219.983 87.387C219.747 86.2822 219.539 85.1879 219.36 84.1042C219.28 83.6441 219.214 83.1824 219.161 82.7191C219.108 82.2559 219.026 81.7821 218.916 81.2979ZM253.899 77.9688C253.161 78.2739 252.451 78.5894 251.771 78.9155C251.09 79.2416 250.423 79.5661 249.77 79.8891C249.534 79.9988 249.286 80.1237 249.026 80.2638C248.793 80.4008 248.561 80.5378 248.328 80.6748C248.004 80.7393 247.865 80.976 247.912 81.3847C248.064 82.4716 248.214 83.5448 248.362 84.6044C248.535 85.6337 248.723 86.675 248.926 87.7284C249.058 88.4034 249.188 89.0648 249.318 89.7126C249.447 90.3603 249.588 90.9929 249.741 91.6103C249.827 91.8766 249.814 92.1265 249.702 92.36C249.588 92.5663 249.425 92.7092 249.213 92.7885C249.029 92.8648 248.821 92.8609 248.591 92.7767C248.36 92.6926 248.152 92.5645 247.967 92.3924C247.76 92.0296 247.595 91.6757 247.473 91.3308C247.083 90.3264 246.747 89.3158 246.465 88.299C246.183 87.2822 245.915 86.2638 245.661 85.2439C245.523 84.7627 245.385 84.2816 245.248 83.8004C245.137 83.3161 245.027 82.8319 244.916 82.3476C244.864 82.1327 244.8 81.933 244.724 81.7485C244.644 81.5367 244.512 81.3448 244.327 81.1727C243.926 80.8044 243.829 80.3185 244.036 79.7152C244.138 79.3999 244.15 79.1364 244.07 78.9246C243.687 77.2569 243.4 75.592 243.211 73.9298C243.018 72.2403 242.84 70.5629 242.678 68.8976C242.67 68.3464 242.652 67.824 242.623 67.3304C242.594 66.8368 242.578 66.3281 242.573 65.8041C242.638 65.1618 242.851 64.613 243.213 64.1576C243.551 63.7326 243.986 63.5451 244.516 63.595C245.046 63.6449 245.451 63.9299 245.731 64.45C245.895 64.6797 245.993 64.9308 246.024 65.2033C246.079 65.4455 246.124 65.7164 246.158 66.0161C246.276 67.0516 246.396 68.1007 246.517 69.1634C246.666 70.223 246.786 71.2721 246.877 72.3107C246.96 73.0464 247.058 73.7806 247.169 74.5132C247.305 75.2155 247.387 75.9376 247.416 76.6796C247.444 76.9248 247.489 77.0716 247.549 77.1198C247.634 77.1378 247.796 77.1055 248.035 77.023C248.822 76.6572 249.628 76.3444 250.454 76.0845C251.304 75.7943 252.144 75.5329 252.973 75.3002C253.267 75.2115 253.438 75.1368 253.486 75.0761C253.531 74.9881 253.538 74.8079 253.507 74.5354C253.39 73.7483 253.272 72.9612 253.155 72.1741C253.061 71.3566 252.997 70.5496 252.961 69.7532C252.935 69.0385 252.922 68.3222 252.923 67.6044C252.924 66.8866 252.981 66.1762 253.094 65.4732C253.147 64.9703 253.288 64.5125 253.517 64.0999C253.683 63.8602 253.855 63.6749 254.033 63.5442C254.212 63.4134 254.439 63.3461 254.714 63.3423C255.017 63.3353 255.247 63.4194 255.405 63.5946C255.588 63.7395 255.747 63.9283 255.884 64.1611C256.07 64.5816 256.218 65.0339 256.329 65.5182C256.439 66.0024 256.521 66.4762 256.574 66.9394C256.68 68.1143 256.775 69.3043 256.857 70.5095C256.966 71.7115 257.035 72.9183 257.063 74.1297C257.082 74.2932 257.102 74.4703 257.124 74.661C257.142 74.8245 257.2 74.9697 257.297 75.0967C257.547 75.3443 257.602 75.5864 257.463 75.8231C257.258 76.2053 257.181 76.6144 257.231 77.0504C257.277 77.4591 257.297 77.871 257.289 78.2859C257.377 79.5456 257.454 80.8205 257.518 82.1105C257.61 83.3974 257.701 84.6844 257.793 85.9713L258.18 89.3639C258.208 89.6091 258.25 89.8528 258.305 90.0949C258.387 90.3339 258.47 90.573 258.552 90.812C258.717 91.29 258.597 91.6902 258.192 92.0124C257.86 92.2436 257.456 92.2069 256.979 91.9024C256.712 91.7397 256.51 91.5419 256.373 91.3091C256.26 91.0459 256.147 90.7827 256.035 90.5196C255.812 90.0205 255.642 89.5016 255.526 88.9628C255.436 88.4209 255.333 87.8806 255.217 87.3418C254.982 86.016 254.791 84.699 254.642 83.3911C254.52 82.08 254.328 80.7631 254.067 79.4403C254.014 79.2254 253.974 78.9953 253.946 78.7501C253.946 78.5017 253.93 78.2413 253.899 77.9688ZM261.426 76.4474C261.208 75.2578 261.044 74.0619 260.934 72.8599C260.825 71.6578 260.674 70.4604 260.483 69.2676C260.403 68.8075 260.35 68.3442 260.324 67.8779C260.326 67.4084 260.315 66.9542 260.293 66.5151C260.268 66.2971 260.233 66.1079 260.187 65.9475C260.141 65.7871 260.039 65.6193 259.881 65.4441C259.538 65.0968 259.368 64.7021 259.373 64.2599C259.402 63.7873 259.605 63.3915 259.983 63.0723C260.43 62.6349 260.908 62.3457 261.416 62.2049C262.381 61.9567 263.345 61.6949 264.308 61.4195C265.27 61.1441 266.24 60.9368 267.218 60.7976C267.681 60.7448 268.132 60.7071 268.571 60.6846C269.035 60.6317 269.491 60.6349 269.939 60.6942C270.612 60.7831 271.223 61.0584 271.772 61.5202C272.261 61.9336 272.385 62.4164 272.144 62.9683C271.846 63.4992 271.383 63.6762 270.756 63.4994C270.413 63.4004 270.067 63.3848 269.715 63.4525C269.361 63.4929 268.995 63.5485 268.616 63.6193C267.893 63.8122 267.187 64.0309 266.497 64.2752C265.807 64.5195 265.116 64.7502 264.423 64.9673C264.05 65.0926 263.883 65.3187 263.92 65.6457C264.21 67.2137 264.42 68.8183 264.552 70.4595C264.709 72.0703 264.906 73.6765 265.144 75.278C265.235 75.5987 265.312 75.7833 265.372 75.8316C265.43 75.8526 265.606 75.8187 265.899 75.73C266.38 75.5923 266.866 75.4955 267.357 75.4395C267.874 75.3805 268.377 75.3093 268.864 75.2261C269.246 75.1826 269.614 75.1406 269.968 75.1002C270.349 75.0567 270.746 75.0252 271.158 75.0058C271.785 74.9343 272.199 75.1769 272.4 75.7336C272.544 76.2692 272.332 76.7075 271.764 77.0484C271.431 77.2796 271.038 77.4625 270.584 77.5971C270.154 77.7013 269.753 77.8161 269.381 77.9413C268.313 78.2564 267.269 78.5412 266.249 78.7956C266.034 78.8477 265.906 78.9314 265.863 79.0466C265.821 79.1618 265.813 79.3284 265.838 79.5464C266.044 80.6271 266.279 81.7182 266.542 82.8199C266.803 83.8943 267.103 84.9505 267.442 85.9883C267.656 86.654 267.822 87.0215 267.941 87.0908C268.083 87.1297 268.444 86.9091 269.025 86.4289C269.707 85.8817 270.343 85.2846 270.932 84.6378C271.517 83.9637 272.044 83.2549 272.511 82.5115C272.743 82.1262 273.001 81.8483 273.286 81.6778C273.594 81.477 273.909 81.4549 274.23 81.6115C274.552 81.768 274.734 82.037 274.778 82.4185C274.763 82.5306 274.75 82.6563 274.738 82.7957C274.75 82.9047 274.737 83.0304 274.698 83.1729C274.651 83.7303 274.465 84.276 274.14 84.81C273.056 86.9212 271.622 88.7548 269.84 90.3108C268.982 91.016 268.117 91.2941 267.244 91.1453C266.398 90.9933 265.699 90.5486 265.146 89.8113C264.662 89.2039 264.286 88.5705 264.018 87.911C263.774 87.2212 263.541 86.5162 263.321 85.796C263.006 84.7278 262.73 83.6413 262.494 82.5365C262.257 81.4318 262.05 80.3375 261.871 79.2537C261.791 78.7936 261.724 78.3319 261.671 77.8687C261.618 77.4055 261.537 76.9317 261.426 76.4474ZM285.552 80.1541C285.918 80.2226 286.259 80.308 286.575 80.41C286.914 80.4817 287.238 80.5413 287.547 80.5889C288.453 80.7891 289.337 81.0333 290.198 81.3216C291.059 81.6098 291.897 81.942 292.713 82.3181C293.292 82.5557 293.861 82.8221 294.419 83.1172C294.977 83.4124 295.52 83.6955 296.048 83.9665C296.258 84.1083 296.453 84.2515 296.636 84.3964C296.815 84.514 296.97 84.6619 297.1 84.8402C297.325 85.1182 297.47 85.4191 297.535 85.743C297.623 86.0365 297.589 86.3441 297.433 86.6656C297.222 86.9933 296.971 87.2151 296.681 87.3311C296.39 87.447 296.051 87.4995 295.663 87.4885C295.466 87.4558 295.254 87.411 295.027 87.3541C294.827 87.2941 294.625 87.2205 294.422 87.1333C293.685 86.7205 292.951 86.335 292.22 85.9768C291.486 85.5913 290.717 85.2649 289.914 84.9977C288.761 84.5771 287.576 84.2293 286.358 83.9542C285.136 83.6519 283.914 83.4602 282.69 83.379C282.608 83.3883 282.513 83.3992 282.404 83.4117C282.319 83.3937 282.237 83.4031 282.159 83.4396C282.199 83.7939 282.242 84.1754 282.289 84.5841C282.333 84.9656 282.39 85.3455 282.461 85.7239C282.58 86.2899 282.688 86.8711 282.784 87.4675C282.879 88.0639 282.975 88.6603 283.071 89.2566C283.138 89.6078 283.129 89.8849 283.041 90.0881C282.978 90.2609 282.844 90.4143 282.638 90.5481C282.085 90.7769 281.6 90.639 281.183 90.1345C280.867 89.7841 280.616 89.3986 280.43 88.9782C280.272 88.5547 280.139 88.1144 280.031 87.6574C279.732 86.7254 279.459 85.7903 279.214 84.8521C278.993 83.8836 278.76 82.9302 278.515 81.9921C278.23 80.948 277.987 79.8993 277.784 78.8459C277.605 77.7621 277.441 76.6904 277.293 75.6308C277.064 74.1111 276.847 72.5762 276.643 71.0261C276.435 69.4487 276.257 67.8819 276.107 66.3256C276.044 65.7806 276.009 65.2325 276.002 64.6813C275.994 64.1301 275.986 63.5789 275.979 63.0277C275.962 62.6431 276.033 62.29 276.189 61.9685C276.346 61.647 276.622 61.4084 277.018 61.2528C277.094 61.189 277.157 61.1403 277.209 61.1069C277.287 61.0703 277.337 61.0232 277.358 60.9656C278.14 60.0759 278.998 59.3707 279.933 58.85C280.891 58.299 281.901 57.8387 282.963 57.4691C284.394 56.9469 285.824 56.8942 287.251 57.311C288.703 57.6974 289.925 58.4828 290.916 59.6671C291.463 60.35 291.878 61.0893 292.162 61.885C292.47 62.6504 292.647 63.4722 292.692 64.3504C292.81 65.3858 292.789 66.4096 292.628 67.4217C292.465 68.4065 292.218 69.387 291.888 70.3632C291.287 72.1156 290.491 73.7247 289.498 75.1905C288.506 76.6563 287.396 78.0528 286.167 79.3799C286.071 79.5014 285.959 79.6107 285.832 79.708C285.732 79.8022 285.639 79.9509 285.552 80.1541ZM281.382 78.808C281.572 78.7862 281.705 78.7434 281.781 78.6796C281.881 78.5854 281.982 78.5049 282.085 78.4379C282.764 77.8635 283.399 77.2529 283.987 76.606C284.6 75.9288 285.157 75.2442 285.658 74.5521C286.255 73.7387 286.795 72.9042 287.277 72.0487C287.756 71.1659 288.162 70.25 288.495 69.3011C288.832 68.3793 289.058 67.4564 289.173 66.5323C289.313 65.5779 289.258 64.6179 289.01 63.6525C288.851 62.9806 288.499 62.3168 287.955 61.6612C287.438 61.0025 286.678 60.6337 285.675 60.5549C285.315 60.5408 284.944 60.5555 284.563 60.5991C284.205 60.6122 283.868 60.6783 283.55 60.7974C282.833 61.0448 282.149 61.3437 281.499 61.6939C280.846 62.0169 280.213 62.3928 279.599 62.8216C279.297 63.0769 279.163 63.3545 279.197 63.6542C279.311 64.1657 279.397 64.6804 279.456 65.1981C279.512 65.6886 279.568 66.1791 279.624 66.6695C279.792 68.141 279.972 69.5973 280.164 71.0384C280.383 72.4764 280.589 73.9159 280.781 75.357C280.901 75.9231 281.008 76.5042 281.104 77.1006C281.197 77.6697 281.289 78.2389 281.382 78.808ZM298.548 72.2118C298.33 71.0222 298.165 69.8263 298.056 68.6242C297.946 67.4222 297.796 66.2248 297.605 65.032C297.525 64.5719 297.472 64.1086 297.446 63.6423C297.448 63.1728 297.437 62.7186 297.415 62.2795C297.39 62.0615 297.355 61.8723 297.309 61.7119C297.263 61.5515 297.161 61.3837 297.003 61.2085C296.659 60.8612 296.49 60.4665 296.495 60.0243C296.524 59.5517 296.727 59.1559 297.105 58.8367C297.552 58.3993 298.029 58.1101 298.538 57.9693C299.503 57.7211 300.467 57.4593 301.429 57.1839C302.392 56.9085 303.362 56.7012 304.34 56.562C304.803 56.5092 305.254 56.4715 305.693 56.449C306.156 56.3961 306.612 56.3993 307.061 56.4586C307.733 56.5474 308.344 56.8228 308.894 57.2845C309.383 57.698 309.507 58.1807 309.266 58.7327C308.968 59.2636 308.505 59.4406 307.878 59.2638C307.535 59.1648 307.188 59.1492 306.837 59.2169C306.483 59.2573 306.117 59.3129 305.738 59.3837C305.015 59.5766 304.308 59.7953 303.619 60.0396C302.929 60.2839 302.237 60.5146 301.544 60.7317C301.172 60.857 301.005 61.0831 301.042 61.4101C301.331 62.9781 301.542 64.5827 301.674 66.2239C301.83 67.8347 302.027 69.4409 302.265 71.0424C302.357 71.3631 302.433 71.5477 302.494 71.5959C302.552 71.617 302.727 71.5831 303.021 71.4944C303.502 71.3567 303.988 71.2599 304.478 71.2039C304.996 71.1449 305.499 71.0737 305.986 70.9905C306.368 70.947 306.735 70.905 307.09 70.8646C307.471 70.821 307.868 70.7896 308.28 70.7702C308.906 70.6987 309.321 70.9413 309.522 71.498C309.666 72.0336 309.454 72.4719 308.885 72.8128C308.553 73.044 308.16 73.2268 307.706 73.3614C307.276 73.4657 306.875 73.5805 306.503 73.7057C305.435 74.0208 304.391 74.3056 303.371 74.56C303.156 74.6121 303.027 74.6958 302.985 74.811C302.943 74.9262 302.935 75.0928 302.959 75.3108C303.166 76.3914 303.401 77.4826 303.664 78.5843C303.925 79.6587 304.225 80.7148 304.564 81.7527C304.778 82.4184 304.944 82.7859 305.062 82.8552C305.205 82.8941 305.566 82.6735 306.146 82.1932C306.829 81.6461 307.465 81.049 308.054 80.4022C308.639 79.7281 309.166 79.0193 309.633 78.2759C309.865 77.8906 310.123 77.6127 310.407 77.4422C310.716 77.2414 311.031 77.2193 311.352 77.3758C311.674 77.5324 311.856 77.8014 311.9 78.1829C311.885 78.295 311.872 78.4207 311.86 78.5601C311.872 78.6691 311.859 78.7948 311.82 78.9373C311.773 79.4947 311.587 80.0404 311.262 80.5744C310.177 82.6856 308.744 84.5192 306.962 86.0752C306.104 86.7804 305.238 87.0585 304.366 86.9097C303.52 86.7577 302.821 86.313 302.267 85.5757C301.784 84.9683 301.408 84.3349 301.14 83.6754C300.895 82.9856 300.663 82.2806 300.443 81.5604C300.128 80.4922 299.852 79.4057 299.616 78.3009C299.379 77.1962 299.171 76.1019 298.993 75.0181C298.912 74.558 298.846 74.0963 298.793 73.6331C298.74 73.1698 298.659 72.6961 298.548 72.2118Z" fill="#33393F"/>
<path d="M89 142C168.494 111.454 207.45 104.895 321 89.5" stroke="#33393F" stroke-width="2"/>
</g>
<defs>
<clipPath id="clip0_120_1124">
<rect width="411" height="142" fill="white"/>
</clipPath>
</defs>
</svg>
