{
  "accessors": [
    {
      "bufferView": 1,
      "componentType": 5126,
      "count": 27989,
      "max": [
        350.81304931640625,
        -127.00389099121094,
        323.6107177734375
      ],
      "min": [
        103.38343048095703,
        -331.3960266113281,
        76.52804565429688
      ],
      "type": "VEC3"
    },
    {
      "bufferView": 1,
      "byteOffset": 335868,
      "componentType": 5126,
      "count": 27989,
      "max": [
        0.9999029636383057,
        0.999983549118042,
        0.9998547434806824
      ],
      "min": [
        -0.9999743700027466,
        -0.9999988079071045,
        -0.9999458193778992
      ],
      "type": "VEC3"
    },
    {
      "bufferView": 2,
      "componentType": 5126,
      "count": 27989,
      "max": [
        0.9058823585510254,
        0.9176470637321472,
        0.9254902005195618,
        1.0
      ],
      "min": [
        0.886274516582489,
        0.7764706015586853,
        0.7764706015586853,
        1.0
      ],
      "type": "VEC4"
    },
    {
      "bufferView": 0,
      "componentType": 5125,
      "count": 162618,
      "type": "SCALAR"
    },
    {
      "bufferView": 1,
      "byteOffset": 671736,
      "componentType": 5126,
      "count": 41837,
      "max": [
        374.80517578125,
        -111.76647186279297,
        321.96380615234375
      ],
      "min": [
        77.59586334228516,
        -354.417236328125,
        38.296878814697266
      ],
      "type": "VEC3"
    },
    {
      "bufferView": 1,
      "byteOffset": 1173780,
      "componentType": 5126,
      "count": 41837,
      "max": [
        0.9999855160713196,
        0.9999541640281677,
        0.9999438524246216
      ],
      "min": [
        -0.9999728202819824,
        -0.999943196773529,
        -0.9999796152114868
      ],
      "type": "VEC3"
    },
    {
      "bufferView": 2,
      "byteOffset": 447824,
      "componentType": 5126,
      "count": 41837,
      "max": [
        0.8588235378265381,
        0.8313725590705872,
        0.8352941274642944,
        1.0
      ],
      "min": [
        0.7254902124404907,
        0.43529412150382996,
        0.43529412150382996,
        1.0
      ],
      "type": "VEC4"
    },
    {
      "bufferView": 0,
      "byteOffset": 650472,
      "componentType": 5125,
      "count": 162288,
      "type": "SCALAR"
    },
    {
      "bufferView": 1,
      "byteOffset": 1675824,
      "componentType": 5126,
      "count": 22951,
      "max": [
        348.39453125,
        -135.38047790527344,
        318.96990966796875
      ],
      "min": [
        118.6084976196289,
        -321.64129638671875,
        85.2651138305664
      ],
      "type": "VEC3"
    },
    {
      "bufferView": 1,
      "byteOffset": 1951236,
      "componentType": 5126,
      "count": 22951,
      "max": [
        0.9998309016227722,
        0.9999548196792603,
        0.9997987747192383
      ],
      "min": [
        -0.9998880624771118,
        -0.9999089241027832,
        -0.9999812841415405
      ],
      "type": "VEC3"
    },
    {
      "bufferView": 2,
      "byteOffset": 1117216,
      "componentType": 5126,
      "count": 22951,
      "max": [
        0.886274516582489,
        0.9176470637321472,
        0.9254902005195618,
        1.0
      ],
      "min": [
        0.886274516582489,
        0.9176470637321472,
        0.9254902005195618,
        1.0
      ],
      "type": "VEC4"
    },
    {
      "bufferView": 0,
      "byteOffset": 1299624,
      "componentType": 5125,
      "count": 98760,
      "type": "SCALAR"
    },
    {
      "bufferView": 1,
      "byteOffset": 2226648,
      "componentType": 5126,
      "count": 2220,
      "max": [
        239.3024444580078,
        -281.3239440917969,
        359.6351013183594
      ],
      "min": [
        201.7037811279297,
        -316.9394836425781,
        318.3974609375
      ],
      "type": "VEC3"
    },
    {
      "bufferView": 1,
      "byteOffset": 2253288,
      "componentType": 5126,
      "count": 2220,
      "max": [
        0.9994277954101563,
        0.9999479055404663,
        0.9983593225479126
      ],
      "min": [
        -0.9997681379318237,
        -0.990164041519165,
        -0.9949790835380554
      ],
      "type": "VEC3"
    },
    {
      "bufferView": 2,
      "byteOffset": 1484432,
      "componentType": 5126,
      "count": 2220,
      "max": [
        0.9137254953384399,
        0.8980392217636108,
        0.8980392217636108,
        1.0
      ],
      "min": [
        0.9137254953384399,
        0.8980392217636108,
        0.8980392217636108,
        1.0
      ],
      "type": "VEC4"
    },
    {
      "bufferView": 0,
      "byteOffset": 1694664,
      "componentType": 5125,
      "count": 13482,
      "type": "SCALAR"
    },
    {
      "bufferView": 1,
      "byteOffset": 2279928,
      "componentType": 5126,
      "count": 3638,
      "max": [
        240.40283203125,
        -267.0044250488281,
        361.7547302246094
      ],
      "min": [
        200.3304443359375,
        -318.8960266113281,
        305.54638671875
      ],
      "type": "VEC3"
    },
    {
      "bufferView": 1,
      "byteOffset": 2323584,
      "componentType": 5126,
      "count": 3638,
      "max": [
        0.9999895691871643,
        0.998460590839386,
        0.9979875087738037
      ],
      "min": [
        -0.9994151592254639,
        -0.9997358918190002,
        -0.9980933666229248
      ],
      "type": "VEC3"
    },
    {
      "bufferView": 2,
      "byteOffset": 1519952,
      "componentType": 5126,
      "count": 3638,
      "max": [
        0.886274516582489,
        0.9176470637321472,
        0.9254902005195618,
        1.0
      ],
      "min": [
        0.886274516582489,
        0.9176470637321472,
        0.9254902005195618,
        1.0
      ],
      "type": "VEC4"
    },
    {
      "bufferView": 0,
      "byteOffset": 1748592,
      "componentType": 5125,
      "count": 17709,
      "type": "SCALAR"
    },
    {
      "bufferView": 1,
      "byteOffset": 2367240,
      "componentType": 5126,
      "count": 440,
      "max": [
        239.95407104492188,
        -259.0636291503906,
        341.7609558105469
      ],
      "min": [
        198.9544677734375,
        -290.1090087890625,
        296.29107666015625
      ],
      "type": "VEC3"
    },
    {
      "bufferView": 1,
      "byteOffset": 2372520,
      "componentType": 5126,
      "count": 440,
      "max": [
        0.9999856948852539,
        0.972236156463623,
        0.9633781909942627
      ],
      "min": [
        -0.999828040599823,
        -0.9904317855834961,
        -0.9607046842575073
      ],
      "type": "VEC3"
    },
    {
      "bufferView": 2,
      "byteOffset": 1578160,
      "componentType": 5126,
      "count": 440,
      "max": [
        0.8078431487083435,
        0.5882353186607361,
        0.5882353186607361,
        1.0
      ],
      "min": [
        0.8078431487083435,
        0.5882353186607361,
        0.5882353186607361,
        1.0
      ],
      "type": "VEC4"
    },
    {
      "bufferView": 0,
      "byteOffset": 1819428,
      "componentType": 5125,
      "count": 2628,
      "type": "SCALAR"
    }
  ],
  "asset": {
    "extras": {
      "author": "E-learning UMCG (https://sketchfab.com/eLearningUMCG)",
      "license": "CC-BY-NC-SA-4.0 (http://creativecommons.org/licenses/by-nc-sa/4.0/)",
      "source": "https://sketchfab.com/3d-models/anatomy-of-the-airways-opaque-lungs-1cd55d26c1254ab7a5d0845fb9a207fe",
      "title": "Anatomy of the airways (opaque lungs)"
    },
    "generator": "Sketchfab-12.66.0",
    "version": "2.0"
  },
  "bufferViews": [
    {
      "buffer": 0,
      "byteLength": 1829940,
      "name": "floatBufferViews",
      "target": 34963
    },
    {
      "buffer": 0,
      "byteLength": 2377800,
      "byteOffset": 1829940,
      "byteStride": 12,
      "name": "floatBufferViews",
      "target": 34962
    },
    {
      "buffer": 0,
      "byteLength": 1585200,
      "byteOffset": 4207740,
      "byteStride": 16,
      "name": "floatBufferViews",
      "target": 34962
    }
  ],
  "buffers": [
    {
      "byteLength": 5792940,
      "uri": "scene.bin"
    }
  ],
  "extensionsRequired": [
    "KHR_materials_pbrSpecularGlossiness"
  ],
  "extensionsUsed": [
    "KHR_materials_pbrSpecularGlossiness"
  ],
  "materials": [
    {
      "doubleSided": true,
      "extensions": {
        "KHR_materials_pbrSpecularGlossiness": {
          "diffuseFactor": [
            0.5,
            0.5,
            0.5,
            1.0
          ],
          "glossinessFactor": 0.0,
          "specularFactor": [
            0.05,
            0.05,
            0.05
          ]
        }
      },
      "name": "bronchi1"
    },
    {
      "extensions": {
        "KHR_materials_pbrSpecularGlossiness": {
          "diffuseFactor": [
            0.8556051858,
            0.8556051858,
            0.8556051858,
            1.0
          ],
          "glossinessFactor": 0.0,
          "specularFactor": [
            0.0,
            0.0,
            0.0
          ]
        }
      },
      "name": "Linkerlong"
    },
    {
      "doubleSided": true,
      "extensions": {
        "KHR_materials_pbrSpecularGlossiness": {
          "diffuseFactor": [
            0.5,
            0.5,
            0.5,
            1.0
          ],
          "glossinessFactor": 0.0,
          "specularFactor": [
            0.0,
            0.0,
            0.0
          ]
        }
      },
      "name": "Trachea_kraakbeen"
    },
    {
      "doubleSided": true,
      "extensions": {
        "KHR_materials_pbrSpecularGlossiness": {
          "diffuseFactor": [
            0.5,
            0.5,
            0.5,
            1.0
          ],
          "glossinessFactor": 0.0,
          "specularFactor": [
            0.0,
            0.0,
            0.0
          ]
        }
      },
      "name": "Tussen_hyoid_en_thyroid"
    },
    {
      "doubleSided": true,
      "extensions": {
        "KHR_materials_pbrSpecularGlossiness": {
          "diffuseFactor": [
            0.5,
            0.5,
            0.5,
            1.0
          ],
          "glossinessFactor": 0.0,
          "specularFactor": [
            0.0,
            0.0,
            0.0
          ]
        }
      },
      "name": "Hyoid_bone"
    },
    {
      "doubleSided": true,
      "extensions": {
        "KHR_materials_pbrSpecularGlossiness": {
          "diffuseFactor": [
            0.5,
            0.5,
            0.5,
            1.0
          ],
          "glossinessFactor": 0.3858612805,
          "specularFactor": [
            0.044,
            0.044,
            0.044
          ]
        }
      },
      "name": "Thyroid_gland"
    }
  ],
  "meshes": [
    {
      "name": "bronchi1_bronchi1_0",
      "primitives": [
        {
          "attributes": {
            "COLOR_0": 2,
            "NORMAL": 1,
            "POSITION": 0
          },
          "indices": 3,
          "material": 0,
          "mode": 4
        }
      ]
    },
    {
      "name": "Linkerlong_Linkerlong_0",
      "primitives": [
        {
          "attributes": {
            "COLOR_0": 6,
            "NORMAL": 5,
            "POSITION": 4
          },
          "indices": 7,
          "material": 1,
          "mode": 4
        }
      ]
    },
    {
      "name": "Trachea_kraakbeen_Trachea_kraakbeen_0",
      "primitives": [
        {
          "attributes": {
            "COLOR_0": 10,
            "NORMAL": 9,
            "POSITION": 8
          },
          "indices": 11,
          "material": 2,
          "mode": 4
        }
      ]
    },
    {
      "name": "Tussen_hyoid_en_thyroid_Tussen_hyoid_en_thyroid_0",
      "primitives": [
        {
          "attributes": {
            "COLOR_0": 14,
            "NORMAL": 13,
            "POSITION": 12
          },
          "indices": 15,
          "material": 3,
          "mode": 4
        }
      ]
    },
    {
      "name": "Hyoid_bone_Hyoid_bone_0",
      "primitives": [
        {
          "attributes": {
            "COLOR_0": 18,
            "NORMAL": 17,
            "POSITION": 16
          },
          "indices": 19,
          "material": 4,
          "mode": 4
        }
      ]
    },
    {
      "name": "Thyroid_gland_Thyroid_gland_0",
      "primitives": [
        {
          "attributes": {
            "COLOR_0": 22,
            "NORMAL": 21,
            "POSITION": 20
          },
          "indices": 23,
          "material": 5,
          "mode": 4
        }
      ]
    }
  ],
  "nodes": [
    {
      "children": [
        1
      ],
      "matrix": [
        0.9955886006355286,
        0.02755538560450079,
        -0.08968846499919891,
        0.0,
        0.037669576704502106,
        -0.9928683042526245,
        0.11310856789350487,
        0.0,
        -0.08593208342790604,
        -0.11598812788724877,
        -0.9895263910293579,
        0.0,
        -11.497309684753418,
        -464.95953369140625,
        12.28743743896474,
        1.0
      ],
      "name": "Sketchfab_model"
    },
    {
      "children": [
        2
      ],
      "matrix": [
        1.0,
        0.0,
        0.0,
        0.0,
        0.0,
        0.0,
        1.0,
        0.0,
        0.0,
        -1.0,
        0.0,
        0.0,
        0.0,
        0.0,
        0.0,
        1.0
      ],
      "name": "730c75be00ed498b871418f1328bee1b.fbx"
    },
    {
      "children": [
        3,
        5,
        7,
        9,
        11,
        13
      ],
      "name": "RootNode"
    },
    {
      "children": [
        4
      ],
      "name": "bronchi1"
    },
    {
      "mesh": 0,
      "name": "bronchi1_bronchi1_0"
    },
    {
      "children": [
        6
      ],
      "name": "Linkerlong"
    },
    {
      "mesh": 1,
      "name": "Linkerlong_Linkerlong_0"
    },
    {
      "children": [
        8
      ],
      "name": "Trachea_kraakbeen"
    },
    {
      "mesh": 2,
      "name": "Trachea_kraakbeen_Trachea_kraakbeen_0"
    },
    {
      "children": [
        10
      ],
      "name": "Tussen_hyoid_en_thyroid"
    },
    {
      "mesh": 3,
      "name": "Tussen_hyoid_en_thyroid_Tussen_hyoid_en_thyroid_0"
    },
    {
      "children": [
        12
      ],
      "name": "Hyoid_bone"
    },
    {
      "mesh": 4,
      "name": "Hyoid_bone_Hyoid_bone_0"
    },
    {
      "children": [
        14
      ],
      "name": "Thyroid_gland"
    },
    {
      "mesh": 5,
      "name": "Thyroid_gland_Thyroid_gland_0"
    }
  ],
  "scene": 0,
  "scenes": [
    {
      "name": "Sketchfab_Scene",
      "nodes": [
        0
      ]
    }
  ]
}
